# xmcd
#
# Track frame offsets:
#	150
#	18505
#	36515
#	59960
#	83832
#
# Disc length: 1344 seconds
#
# Revision: 1
# Processed by: cddbd v1.5.2PL0 Copyright (c) Steve Scherf et al.
# Submitted via: audiograbber 1.83.01
#
DISCID=43053e05
DTITLE=Minna Björn - 1 Sekunnin Vain [CDM)
DYEAR=1996
DGENRE=House
TTITLE0=1 Sekunnin Vain (Radio Edit)
TTITLE1=1 Sekunnin Vain (Lounge House)
TTITLE2=1 Sekunnin Vain (Ballroom Mayhem)
TTITLE3=1 Sekunnin Vain (Organ House Club Mix)
TTITLE4=Mita Sä Teet? (Single Mix)
EXTD=TR.
EXTT0=
EXTT1=
EXTT2=
EXTT3=
EXTT4=
PLAYORDER=
